# xmcd
#
# Track frame offsets:
#	150
#	10209
#	23450
#	37920
#	48901
#	63183
#	75125
#	89119
#	102489
#	118586
#	129892
#	147132
#
# Disc length: 2135 seconds
# Revision: 0
# Processed by: cddbd v1.5.2PL0 Copyright (c) Steve Scherf et al.
# Submitted via: dBpowerAMP V12.0
#
DISCID=8708550c
DTITLE=Junior Sisk and Ramblers Choice - Poor Boy's Pleasure
DYEAR=2016
DGENRE=Country
TTITLE0=Lonnie Ray
TTITLE1=Longneck Blues
TTITLE2=Hang a Wreath
TTITLE3=Land On Our Feet
TTITLE4=In This World But Not Of It
TTITLE5=Jimmy, J.D. and Paul
TTITLE6=Walking in the Blue Ridge
TTITLE7=I Watched You Go
TTITLE8=Poor Boy's Pleasure
TTITLE9=Cold in Carolina
TTITLE10=What About Me Lord
TTITLE11=Ain't Gonna Work Tomorrow
EXTD=
EXTT0=
EXTT1=
EXTT2=
EXTT3=
EXTT4=
EXTT5=
EXTT6=
EXTT7=
EXTT8=
EXTT9=
EXTT10=
EXTT11=
PLAYORDER=
